<?xml version="1.0" encoding="UTF-8" standalone="no"?>
<!DOCTYPE svg PUBLIC "-//W3C//DTD SVG 1.1//EN" "http://www.w3.org/Graphics/SVG/1.1/DTD/svg11.dtd">
<svg width="100%" height="100%" viewBox="0 0 1523 1455" version="1.1" xmlns="http://www.w3.org/2000/svg" xmlns:xlink="http://www.w3.org/1999/xlink" xml:space="preserve" xmlns:serif="http://www.serif.com/" style="fill-rule:evenodd;clip-rule:evenodd;stroke-linejoin:round;stroke-miterlimit:2;">
    <g transform="matrix(1,0,0,1,7.339769,7.339674)">
        <g transform="matrix(4.166667,0,0,4.166667,-245.945708,-30.101125)">
            <g transform="matrix(-1,0,0,1,480.000006,0)">
                <path d="M127.802,309.911C102.18,278.297 97.07,238.399 104.75,208.957C116.363,164.432 156.584,142.36 156.584,142.36C156.584,142.36 112.348,207.809 157.036,277.604C202.952,336.739 289.87,321.464 289.87,321.464C289.87,321.464 279.393,342.956 242.563,350.935C214.723,355.913 164.416,353.394 127.802,309.911L127.802,309.911Z" style="fill-rule:nonzero;stroke:white;stroke-width:3.52px;"/>
                <path d="M390.188,283.236C360.735,311.317 320.925,323.38 290.961,318.093C240.864,311.751 214.429,269.732 214.429,269.732C214.429,269.732 286.096,306.037 349.035,261.167C406.909,208.327 381.207,119.679 381.207,119.679C381.207,119.679 409.904,138.101 417.703,178.64C425.81,209.02 419.64,255.155 390.188,283.236L390.188,283.236Z" style="fill-rule:nonzero;stroke:white;stroke-width:3.52px;"/>
                <path d="M374.311,139.313C362.585,200.431 321.709,214.967 321.709,214.967C321.709,214.967 364.921,135.05 318.52,77.863C266.857,18.937 187.325,36.371 187.325,36.371C187.325,36.371 210.472,14.385 242.146,8.855C271.551,3.721 315.268,9.424 347.514,44.638C379.759,79.851 380.201,109.462 374.311,139.313L374.311,139.313Z" style="fill-rule:nonzero;stroke:white;stroke-width:3.52px;"/>
                <path d="M264.067,89.363C264.067,89.363 183.511,54.289 123.991,105.266C72.374,156.675 97.715,237.072 97.715,237.072C97.715,237.072 64.096,224.268 59.173,159.538C57.59,129.152 68.712,94.42 100.184,68.623C143.602,33.035 192.463,37.88 221.978,51.313C244.605,61.611 264.067,89.363 264.067,89.363L264.067,89.363Z" style="fill-rule:nonzero;stroke:white;stroke-width:3.52px;"/>
            </g>
        </g>
    </g>
</svg>
